RobotoFlex-opsz144-wght500-wdth151.ufo
<glyph name="parenright" format="2">
  <advance width="858"/>
  <unicode hex="0029"/>
  <outline>
    <contour>
      <point x="67.6" y="-436.0" type="qcurve"/>
      <point x="67.6" y="-301.0" type="line"/>
      <point x="236.4" y="-236.0"/>
      <point x="491.2" y="142.0"/>
      <point x="491.2" y="508.0" type="qcurve" smooth="yes"/>
      <point x="491.2" y="532.0" type="line" smooth="yes"/>
      <point x="491.2" y="898.0"/>
      <point x="236.4" y="1276.0"/>
      <point x="67.6" y="1341.0" type="qcurve"/>
      <point x="67.6" y="1476.0" type="line"/>
      <point x="338.4" y="1402.8"/>
      <point x="714.8000000000001" y="926.4"/>
      <point x="714.8000000000001" y="525.1999999999999" type="qcurve" smooth="yes"/>
      <point x="714.8000000000001" y="515.0" type="line" smooth="yes"/>
      <point x="714.8000000000001" y="113.8"/>
      <point x="338.4" y="-362.8"/>
    </contour>
  </outline>
</glyph>
<glyph name="five" format="2">
  <advance width="1463"/>
  <unicode hex="0035"/>
  <outline>
    <contour>
      <point x="151.91199999999998" y="389.47999999999996" type="qcurve" smooth="yes"/>
      <point x="151.91199999999998" y="420.968" type="line"/>
      <point x="355.7919999999999" y="420.872" type="line"/>
      <point x="355.7919999999999" y="393.48" type="line" smooth="yes"/>
      <point x="355.7919999999999" y="262.2997894736842"/>
      <point x="575.104" y="130.92"/>
      <point x="754.4639999999999" y="130.92" type="qcurve" smooth="yes"/>
      <point x="935.24" y="130.92"/>
      <point x="1131.0399999999997" y="310.20799999999997"/>
      <point x="1131.0399999999997" y="482.04" type="qcurve" smooth="yes"/>
      <point x="1131.0399999999997" y="661.008"/>
      <point x="928.312" y="816.592"/>
      <point x="770.64" y="816.592" type="qcurve" smooth="yes"/>
      <point x="621.9039999999999" y="816.592"/>
      <point x="436.864" y="711.6320000000001"/>
      <point x="393.456" y="656.744" type="qcurve"/>
      <point x="211.33599999999996" y="706.96" type="line"/>
      <point x="307.648" y="1456.0" type="line"/>
      <point x="1251.9519999999998" y="1456.0" type="line"/>
      <point x="1251.9519999999998" y="1299.4639999999997" type="line"/>
      <point x="458.07199999999995" y="1299.944" type="line"/>
      <point x="397.5039999999999" y="837.4399999999999" type="line"/>
      <point x="445.1326269113009" y="878.7753532838058"/>
      <point x="661.592" y="958.96"/>
      <point x="814.952" y="958.96" type="qcurve" smooth="yes"/>
      <point x="1039.952" y="958.96"/>
      <point x="1340.112" y="723.032"/>
      <point x="1339.4399999999998" y="488.14400000000006" type="qcurve" smooth="yes"/>
      <point x="1338.768" y="249.112"/>
      <point x="1031.144" y="-22.016"/>
      <point x="754.4799999999999" y="-22.016" type="qcurve" smooth="yes"/>
      <point x="465.304" y="-22.016"/>
      <point x="151.408" y="204.13600000000002"/>
    </contour>
  </outline>
</glyph>
<glyph name="colon" format="2">
  <advance width="548"/>
  <unicode hex="003A"/>
  <outline>
    <contour>
      <point x="146.8" y="107.6" type="qcurve" smooth="yes"/>
      <point x="146.8" y="157.8"/>
      <point x="213.39999999999998" y="225.6"/>
      <point x="274.2" y="225.6" type="qcurve" smooth="yes"/>
      <point x="335.0" y="225.6"/>
      <point x="401.4" y="157.8"/>
      <point x="401.4" y="107.6" type="qcurve" smooth="yes"/>
      <point x="401.4" y="55.8"/>
      <point x="334.8" y="-12.0"/>
      <point x="274.0" y="-12.0" type="qcurve" smooth="yes"/>
      <point x="213.4" y="-12.0"/>
      <point x="146.8" y="57.6"/>
    </contour>
    <contour>
      <point x="146.8" y="824.0" type="qcurve" smooth="yes"/>
      <point x="146.8" y="873.8"/>
      <point x="213.4" y="941.8000000000001"/>
      <point x="274.2" y="941.8000000000001" type="qcurve" smooth="yes"/>
      <point x="335.0" y="941.8000000000001"/>
      <point x="401.4" y="873.8"/>
      <point x="401.4" y="823.5999999999999" type="qcurve" smooth="yes"/>
      <point x="401.4" y="771.8"/>
      <point x="334.8" y="704.0"/>
      <point x="274.0" y="704.0" type="qcurve" smooth="yes"/>
      <point x="213.39999999999998" y="704.0"/>
      <point x="146.8" y="773.6"/>
    </contour>
  </outline>
</glyph>
<glyph name="semicolon" format="2">
  <advance width="538"/>
  <unicode hex="003B"/>
  <outline>
    <contour>
      <point x="71.39999999999999" y="-140.4" type="line"/>
      <point x="138.4" y="-96.2"/>
      <point x="189.60000000000002" y="-3.0000000000000004"/>
      <point x="189.6" y="68.80000000000001" type="qcurve" smooth="yes"/>
      <point x="189.60000000000002" y="218.8" type="line"/>
      <point x="381.2" y="218.8" type="line"/>
      <point x="381.2" y="69.60000000000001" type="line" smooth="yes"/>
      <point x="381.2" y="-23.000000000000004"/>
      <point x="281.0" y="-162.4"/>
      <point x="216.39999999999998" y="-196.99999999999997" type="qcurve"/>
    </contour>
    <contour>
      <point x="146.8" y="824.0" type="qcurve" smooth="yes"/>
      <point x="146.8" y="873.8"/>
      <point x="213.4" y="941.8000000000001"/>
      <point x="274.4" y="941.8000000000001" type="qcurve" smooth="yes"/>
      <point x="335.0" y="941.8000000000001"/>
      <point x="401.40000000000003" y="873.8"/>
      <point x="401.40000000000003" y="823.5999999999999" type="qcurve" smooth="yes"/>
      <point x="401.40000000000003" y="771.8000000000001"/>
      <point x="334.8" y="704.0"/>
      <point x="274.0" y="704.0" type="qcurve" smooth="yes"/>
      <point x="213.4" y="704.0"/>
      <point x="146.8" y="773.6"/>
    </contour>
  </outline>
</glyph>
<glyph name="equal" format="2">
  <advance width="1136"/>
  <unicode hex="003D"/>
  <outline>
    <contour>
      <point x="169.60000000000002" y="397.0" type="line"/>
      <point x="169.60000000000002" y="561.4" type="line"/>
      <point x="967.8" y="561.4" type="line"/>
      <point x="967.8" y="397.0" type="line"/>
    </contour>
    <contour>
      <point x="169.60000000000002" y="828.2" type="line"/>
      <point x="169.60000000000002" y="992.6" type="line"/>
      <point x="967.8" y="992.6" type="line"/>
      <point x="967.8" y="828.2" type="line"/>
    </contour>
  </outline>
</glyph>
<glyph name="greater" format="2">
  <advance width="1127"/>
  <unicode hex="003E"/>
  <outline>
    <contour>
      <point x="157.8" y="202.6" type="line"/>
      <point x="157.8" y="378.59999999999997" type="line"/>
      <point x="784.8" y="676.0" type="line"/>
      <point x="157.8" y="971.4" type="line"/>
      <point x="157.8" y="1147.3999999999999" type="line"/>
      <point x="968.8" y="756.6" type="line"/>
      <point x="968.8" y="595.4" type="line"/>
    </contour>
  </outline>
</glyph>
<glyph name="question" format="2">
  <advance width="1208"/>
  <unicode hex="003F"/>
  <outline>
    <contour>
      <point x="443.8" y="110.2" type="qcurve" smooth="yes"/>
      <point x="443.8" y="161.0"/>
      <point x="513.4" y="231.40000000000003"/>
      <point x="577.5999999999999" y="231.40000000000003" type="qcurve" smooth="yes"/>
      <point x="642.2" y="231.40000000000003"/>
      <point x="711.8" y="161.0"/>
      <point x="711.8" y="110.2" type="qcurve" smooth="yes"/>
      <point x="711.8" y="58.400000000000006"/>
      <point x="642.2" y="-12.0"/>
      <point x="577.8" y="-12.0" type="qcurve" smooth="yes"/>
      <point x="514.0" y="-12.0"/>
      <point x="443.8" y="59.400000000000006"/>
    </contour>
    <contour>
      <point x="65.0" y="1052.0" type="line"/>
      <point x="65.0" y="1102.0" type="line" smooth="yes"/>
      <point x="65.0" y="1273.0"/>
      <point x="368.20000000000005" y="1480.0"/>
      <point x="613.6" y="1480.0" type="qcurve" smooth="yes"/>
      <point x="846.0" y="1480.0"/>
      <point x="1131.0" y="1308.8"/>
      <point x="1131.0" y="1138.8000000000002" type="qcurve" smooth="yes"/>
      <point x="1131.0" y="995.2"/>
      <point x="1002.6" y="834.8"/>
      <point x="899.0" y="761.0" type="qcurve" smooth="yes"/>
      <point x="792.4" y="684.0"/>
      <point x="671.8000000000001" y="550.6"/>
      <point x="671.8000000000001" y="456.2" type="qcurve" smooth="yes"/>
      <point x="671.8000000000001" y="414.40000000000003" type="line"/>
      <point x="475.0" y="414.40000000000003" type="line"/>
      <point x="475.0" y="460.8" type="line" smooth="yes"/>
      <point x="473.0" y="570.1999999999999"/>
      <point x="605.8" y="753.6"/>
      <point x="728.2" y="839.6" type="qcurve" smooth="yes"/>
      <point x="826.8" y="909.6"/>
      <point x="920.4" y="1021.8000000000001"/>
      <point x="920.4" y="1118.0" type="qcurve" smooth="yes"/>
      <point x="920.4" y="1216.8"/>
      <point x="755.2" y="1317.3999999999999"/>
      <point x="608.2" y="1317.3999999999999" type="qcurve" smooth="yes"/>
      <point x="444.0" y="1317.3999999999999"/>
      <point x="246.39999999999998" y="1200.2"/>
      <point x="246.39999999999998" y="1084.0" type="qcurve" smooth="yes"/>
      <point x="246.39999999999998" y="1052.0" type="line"/>
    </contour>
  </outline>
</glyph>
<glyph name="E" format="2">
  <advance width="1485"/>
  <unicode hex="0045"/>
  <anchor x="822.4" y="1432.0" name="top"/>
  <outline>
    <contour>
      <point x="212.0" y="0.0" type="line"/>
      <point x="212.0" y="1456.0" type="line"/>
      <point x="1382.0" y="1456.0" type="line"/>
      <point x="1382.0" y="1286.0" type="line"/>
      <point x="409.0" y="1286.0" type="line"/>
      <point x="409.0" y="821.6" type="line"/>
      <point x="1288.0" y="821.6" type="line"/>
      <point x="1288.0" y="667.6" type="line"/>
      <point x="409.0" y="667.6" type="line"/>
      <point x="409.0" y="166.0" type="line"/>
      <point x="1394.0" y="166.0" type="line"/>
      <point x="1394.0" y="0.0" type="line"/>
    </contour>
  </outline>
</glyph>
<glyph name="F" format="2">
  <advance width="1337"/>
  <unicode hex="0046"/>
  <outline>
    <contour>
      <point x="212.0" y="0.0" type="line"/>
      <point x="212.0" y="1456.0" type="line"/>
      <point x="1317.0" y="1456.0" type="line"/>
      <point x="1317.0" y="1286.2" type="line"/>
      <point x="418.0" y="1286.2" type="line"/>
      <point x="418.0" y="802.0" type="line"/>
      <point x="1252.0" y="802.0" type="line"/>
      <point x="1252.0" y="646.0" type="line"/>
      <point x="418.0" y="646.0" type="line"/>
      <point x="418.0" y="0.0" type="line"/>
    </contour>
  </outline>
</glyph>
<glyph name="G" format="2">
  <advance width="1866"/>
  <unicode hex="0047"/>
  <outline>
    <contour>
      <point x="73.60000000000001" y="732.0" type="qcurve" smooth="yes"/>
      <point x="73.60000000000001" y="744.0" type="line" smooth="yes"/>
      <point x="73.60000000000001" y="1109.8000000000002"/>
      <point x="584.0" y="1479.0"/>
      <point x="979.6" y="1479.0" type="qcurve" smooth="yes"/>
      <point x="1331.8000000000002" y="1479.0"/>
      <point x="1731.4" y="1260.8"/>
      <point x="1766.3999999999999" y="1037.4" type="qcurve" smooth="yes"/>
      <point x="1771.3999999999999" y="1006.0" type="line"/>
      <point x="1570.0" y="1006.0" type="line"/>
      <point x="1567.0" y="1019.4000000000001" type="line" smooth="yes"/>
      <point x="1534.3999999999999" y="1165.8"/>
      <point x="1243.0" y="1313.0"/>
      <point x="972.6" y="1313.0" type="qcurve" smooth="yes"/>
      <point x="662.4000000000001" y="1313.0"/>
      <point x="290.20000000000005" y="1032.0"/>
      <point x="290.20000000000005" y="743.1999999999999" type="qcurve" smooth="yes"/>
      <point x="290.20000000000005" y="726.0000000000001" type="line" smooth="yes"/>
      <point x="290.20000000000005" y="427.2"/>
      <point x="664.0" y="136.4"/>
      <point x="978.4" y="136.4" type="qcurve" smooth="yes"/>
      <point x="1223.8000000000002" y="136.4"/>
      <point x="1542.4" y="227.60000000000002"/>
      <point x="1604.0" y="265.8" type="qcurve"/>
      <point x="1604.0" y="546.4" type="line"/>
      <point x="964.6" y="546.4" type="line"/>
      <point x="964.6" y="694.4" type="line"/>
      <point x="1803.2" y="694.8" type="line"/>
      <point x="1803.2" y="180.2" type="line"/>
      <point x="1706.6000000000001" y="109.60000000000001"/>
      <point x="1301.4" y="-22.0"/>
      <point x="972.0" y="-22.0" type="qcurve" smooth="yes"/>
      <point x="580.6" y="-22.0"/>
      <point x="73.60000000000001" y="348.2"/>
    </contour>
  </outline>
</glyph>
<glyph name="H" format="2">
  <advance width="1820"/>
  <unicode hex="0048"/>
  <outline>
    <contour>
      <point x="212.0" y="0.0" type="line"/>
      <point x="212.0" y="1456.0" type="line"/>
      <point x="420.0" y="1456.0" type="line"/>
      <point x="420.0" y="842.0" type="line"/>
      <point x="1400.0" y="842.0" type="line"/>
      <point x="1400.0" y="1456.0" type="line"/>
      <point x="1608.0" y="1456.0" type="line"/>
      <point x="1608.0" y="0.0" type="line"/>
      <point x="1400.0" y="0.0" type="line"/>
      <point x="1400.0" y="663.8000000000001" type="line"/>
      <point x="420.0" y="663.8000000000001" type="line"/>
      <point x="420.0" y="0.0" type="line"/>
    </contour>
  </outline>
</glyph>
<glyph name="L" format="2">
  <advance width="1286"/>
  <unicode hex="004C"/>
  <outline>
    <contour>
      <point x="212.0" y="0.0" type="line"/>
      <point x="212.0" y="1456.0" type="line"/>
      <point x="420.0" y="1456.0" type="line"/>
      <point x="420.0" y="174.0" type="line"/>
      <point x="1282.0" y="174.0" type="line"/>
      <point x="1282.0" y="0.0" type="line"/>
    </contour>
  </outline>
</glyph>
<glyph name="M" format="2">
  <advance width="2356"/>
  <unicode hex="004D"/>
  <outline>
    <contour>
      <point x="212.0" y="0.0" type="line"/>
      <point x="212.0" y="1456.0" type="line"/>
      <point x="426.0" y="1456.0" type="line"/>
      <point x="1159.0" y="276.2" type="line" smooth="yes"/>
      <point x="1166.9999999999998" y="263.40000000000003"/>
      <point x="1174.0" y="247.6"/>
      <point x="1179.0" y="236.2" type="qcurve"/>
      <point x="1181.2" y="236.2" type="line"/>
      <point x="1186.2" y="247.6"/>
      <point x="1193.0" y="263.40000000000003"/>
      <point x="1201.0" y="276.2" type="qcurve" smooth="yes"/>
      <point x="1922.0" y="1456.0" type="line"/>
      <point x="2144.0" y="1456.0" type="line"/>
      <point x="2144.0" y="0.0" type="line"/>
      <point x="1939.8" y="0.0" type="line"/>
      <point x="1943.0" y="1098.8" type="line" smooth="yes"/>
      <point x="1943.0" y="1116.8"/>
      <point x="1943.0" y="1133.8"/>
      <point x="1943.0" y="1151.8" type="qcurve"/>
      <point x="1939.8" y="1151.8" type="line"/>
      <point x="1931.8" y="1136.4"/>
      <point x="1924.6" y="1123.2"/>
      <point x="1915.6" y="1108.2" type="qcurve" smooth="yes"/>
      <point x="1244.0" y="0.0" type="line"/>
      <point x="1115.0" y="0.0" type="line"/>
      <point x="443.0" y="1087.0" type="line" smooth="yes"/>
      <point x="430.0" y="1108.2"/>
      <point x="420.0" y="1128.0"/>
      <point x="408.2" y="1150.6" type="qcurve"/>
      <point x="405.0" y="1150.6" type="line"/>
      <point x="405.0" y="1126.6"/>
      <point x="405.0" y="1107.0"/>
      <point x="405.0" y="1085.0" type="qcurve" smooth="yes"/>
      <point x="409.0" y="0.0" type="line"/>
    </contour>
  </outline>
</glyph>
<glyph name="O" format="2">
  <advance width="1955"/>
  <unicode hex="004F"/>
  <anchor x="974.4" y="1432.0" name="top"/>
  <outline>
    <contour>
      <point x="73.60000000000001" y="732.0" type="qcurve" smooth="yes"/>
      <point x="73.60000000000001" y="744.0" type="line" smooth="yes"/>
      <point x="73.60000000000001" y="1097.0"/>
      <point x="592.2" y="1480.0"/>
      <point x="976.0" y="1480.0" type="qcurve" smooth="yes"/>
      <point x="1359.8000000000002" y="1480.0"/>
      <point x="1881.2" y="1097.0"/>
      <point x="1881.2" y="744.0" type="qcurve" smooth="yes"/>
      <point x="1881.2" y="732.0" type="line" smooth="yes"/>
      <point x="1881.2" y="364.0"/>
      <point x="1359.8000000000002" y="-24.0"/>
      <point x="976.0" y="-24.0" type="qcurve" smooth="yes"/>
      <point x="592.2" y="-24.0"/>
      <point x="73.60000000000001" y="364.0"/>
    </contour>
    <contour>
      <point x="290.8" y="726.2" type="line" smooth="yes"/>
      <point x="290.8" y="440.0"/>
      <point x="681.2" y="134.4"/>
      <point x="978.0" y="133.4" type="qcurve" smooth="yes"/>
      <point x="1274.2" y="132.4"/>
      <point x="1664.2" y="440.0"/>
      <point x="1664.2" y="724.0" type="qcurve" smooth="yes"/>
      <point x="1664.2" y="742.4000000000001" type="line" smooth="yes"/>
      <point x="1664.2" y="1019.8"/>
      <point x="1276.6" y="1315.6000000000001"/>
      <point x="978.0" y="1316.6000000000001" type="qcurve" smooth="yes"/>
      <point x="678.6" y="1317.6000000000001"/>
      <point x="290.8" y="1019.8"/>
      <point x="290.8" y="743.4000000000001" type="qcurve" smooth="yes"/>
    </contour>
  </outline>
</glyph>
<glyph name="Q" format="2">
  <advance width="1955"/>
  <unicode hex="0051"/>
  <outline>
    <contour>
      <point x="73.60000000000001" y="732.0" type="qcurve" smooth="yes"/>
      <point x="73.60000000000001" y="744.0" type="line" smooth="yes"/>
      <point x="73.60000000000001" y="1095.0"/>
      <point x="587.4000000000001" y="1480.0"/>
      <point x="976.0" y="1480.0" type="qcurve" smooth="yes"/>
      <point x="1367.7999999999997" y="1480.0"/>
      <point x="1881.2" y="1095.0"/>
      <point x="1881.2" y="744.0" type="qcurve" smooth="yes"/>
      <point x="1881.2" y="732.0" type="line" smooth="yes"/>
      <point x="1881.2" y="366.0"/>
      <point x="1367.7999999999997" y="-24.0"/>
      <point x="976.0" y="-24.0" type="qcurve" smooth="yes"/>
      <point x="587.4000000000001" y="-24.0"/>
      <point x="73.60000000000001" y="366.0"/>
    </contour>
    <contour>
      <point x="290.8" y="726.2" type="line" smooth="yes"/>
      <point x="290.8" y="441.99999999999994"/>
      <point x="670.8" y="132.8"/>
      <point x="978.0" y="131.8" type="qcurve" smooth="yes"/>
      <point x="1283.0" y="130.8"/>
      <point x="1664.2" y="441.99999999999994"/>
      <point x="1664.2" y="724.0" type="qcurve" smooth="yes"/>
      <point x="1664.2" y="742.4000000000001" type="line" smooth="yes"/>
      <point x="1664.2" y="1017.8000000000001"/>
      <point x="1283.0" y="1318.8000000000002"/>
      <point x="978.0" y="1319.8000000000002" type="qcurve" smooth="yes"/>
      <point x="670.6" y="1320.8000000000002"/>
      <point x="290.8" y="1017.8000000000001"/>
      <point x="290.8" y="743.4000000000001" type="qcurve" smooth="yes"/>
    </contour>
    <contour>
      <point x="1716.2" y="-217.4" type="line"/>
      <point x="1026.2" y="196.6" type="line"/>
      <point x="1115.3999999999999" y="335.4" type="line"/>
      <point x="1808.4" y="-75.6" type="line"/>
    </contour>
  </outline>
</glyph>
<glyph name="S" format="2">
  <advance width="1530"/>
  <unicode hex="0053"/>
  <outline>
    <contour>
      <point x="41.79999999999999" y="385.0" type="qcurve" smooth="yes"/>
      <point x="36.79999999999999" y="445.0" type="line"/>
      <point x="232.8" y="445.0" type="line"/>
      <point x="238.4" y="397.4" type="line" smooth="yes"/>
      <point x="257.4" y="252.2"/>
      <point x="503.19999999999993" y="129.20000000000002"/>
      <point x="781.0" y="129.20000000000002" type="qcurve" smooth="yes"/>
      <point x="1065.6" y="129.20000000000002"/>
      <point x="1295.8" y="273.59999999999997"/>
      <point x="1295.8000000000002" y="390.40000000000003" type="qcurve" smooth="yes"/>
      <point x="1295.8000000000002" y="505.0"/>
      <point x="1044.6000000000001" y="604.0"/>
      <point x="715.0" y="658.4" type="qcurve" smooth="yes"/>
      <point x="368.6" y="715.2"/>
      <point x="75.0" y="897.8"/>
      <point x="75.0" y="1076.8000000000002" type="qcurve" smooth="yes"/>
      <point x="75.0" y="1262.3999999999999"/>
      <point x="391.40000000000003" y="1479.6000000000001"/>
      <point x="732.4000000000001" y="1479.6000000000001" type="qcurve" smooth="yes"/>
      <point x="1079.7999999999997" y="1479.6000000000001"/>
      <point x="1409.6" y="1278.2"/>
      <point x="1432.6" y="1079.4" type="qcurve" smooth="yes"/>
      <point x="1436.6" y="1042.0" type="line"/>
      <point x="1241.9999999999998" y="1042.0" type="line"/>
      <point x="1237.6" y="1071.1999999999998" type="line" smooth="yes"/>
      <point x="1221.9999999999998" y="1186.2"/>
      <point x="1014.6" y="1321.6000000000001"/>
      <point x="733.2" y="1321.6000000000001" type="qcurve" smooth="yes"/>
      <point x="476.6000000000001" y="1321.6000000000001"/>
      <point x="273.40000000000003" y="1196.8000000000002"/>
      <point x="273.40000000000003" y="1093.8" type="qcurve" smooth="yes"/>
      <point x="273.40000000000003" y="992.4"/>
      <point x="498.40000000000003" y="874.4"/>
      <point x="838.6" y="819.8000000000001" type="qcurve" smooth="yes"/>
      <point x="1188.4" y="763.4"/>
      <point x="1493.6" y="602.8000000000001"/>
      <point x="1493.6" y="419.8" type="qcurve" smooth="yes"/>
      <point x="1493.6" y="204.4"/>
      <point x="1147.1999999999998" y="-23.0"/>
      <point x="786.0000000000001" y="-23.0" type="qcurve" smooth="yes"/>
      <point x="423.00000000000006" y="-23.0"/>
      <point x="60.79999999999999" y="174.8"/>
    </contour>
  </outline>
</glyph>
<glyph name="V" format="2">
  <advance width="1590"/>
  <unicode hex="0056"/>
  <outline>
    <contour>
      <point x="-20.000000000000004" y="1456.0" type="line"/>
      <point x="201.0" y="1456.0" type="line"/>
      <point x="759.8" y="278.40000000000003" type="line" smooth="yes"/>
      <point x="771.6" y="253.2"/>
      <point x="784.8" y="228.59999999999997"/>
      <point x="796.4" y="202.00000000000003" type="qcurve"/>
      <point x="798.2" y="202.00000000000003" type="line"/>
      <point x="810.1999999999999" y="227.99999999999997"/>
      <point x="822.4" y="252.39999999999998"/>
      <point x="834.6" y="278.40000000000003" type="qcurve" smooth="yes"/>
      <point x="1396.1999999999998" y="1456.0" type="line"/>
      <point x="1610.3999999999999" y="1456.0" type="line"/>
      <point x="904.4" y="-9.0" type="line"/>
      <point x="680.0" y="-9.0" type="line"/>
    </contour>
  </outline>
</glyph>
<glyph name="X" format="2">
  <advance width="1418"/>
  <unicode hex="0058"/>
  <outline>
    <contour>
      <point x="-16.0" y="0.0" type="line"/>
      <point x="626.6" y="788.2" type="line"/>
      <point x="667.8000000000001" y="808.2" type="line"/>
      <point x="1191.0" y="1456.0" type="line"/>
      <point x="1414.0" y="1456.0" type="line"/>
      <point x="791.4" y="688.8" type="line"/>
      <point x="747.4000000000001" y="666.4" type="line"/>
      <point x="210.0" y="0.0" type="line"/>
    </contour>
    <contour>
      <point x="7.9999999999999964" y="1456.0" type="line"/>
      <point x="252.0" y="1456.0" type="line"/>
      <point x="766.8" y="817.4" type="line"/>
      <point x="786.8" y="794.4" type="line"/>
      <point x="1434.0" y="0.0" type="line"/>
      <point x="1189.0" y="0.0" type="line"/>
      <point x="644.8" y="673.2" type="line"/>
      <point x="625.6" y="695.0" type="line"/>
    </contour>
  </outline>
</glyph>
<glyph name="Y" format="2">
  <advance width="1531"/>
  <unicode hex="0059"/>
  <anchor x="769.1999999999999" y="1432.0" name="top"/>
  <outline>
    <contour>
      <point x="661.0" y="0.0" type="line"/>
      <point x="661.0" y="539.0" type="line"/>
      <point x="-24.0" y="1456.0" type="line"/>
      <point x="210.8" y="1456.0" type="line"/>
      <point x="726.8" y="764.2" type="line" smooth="yes"/>
      <point x="741.8" y="743.8000000000001"/>
      <point x="758.5999999999999" y="723.1999999999999"/>
      <point x="773.1999999999999" y="701.2" type="qcurve"/>
      <point x="778.6000000000001" y="701.2" type="line"/>
      <point x="793.4" y="722.4"/>
      <point x="810.0" y="743.8000000000001"/>
      <point x="825.0" y="764.2" type="qcurve" smooth="yes"/>
      <point x="1336.6" y="1456.0" type="line"/>
      <point x="1555.0" y="1456.0" type="line"/>
      <point x="871.0" y="539.0" type="line"/>
      <point x="871.0" y="0.0" type="line"/>
    </contour>
  </outline>
</glyph>
<glyph name="backslash" format="2">
  <advance width="927"/>
  <unicode hex="005C"/>
  <outline>
    <contour>
      <point x="-28.0" y="1456.0" type="line"/>
      <point x="166.8" y="1456.0" type="line"/>
      <point x="1007.6" y="-125.0" type="line"/>
      <point x="814.0" y="-125.0" type="line"/>
    </contour>
  </outline>
</glyph>
<glyph name="grave" format="2">
  <advance width="1025"/>
  <unicode hex="0060"/>
  <anchor x="512.0" y="917.4000000000001" name="_top"/>
  <outline>
    <contour>
      <point x="499.80000000000007" y="995.0" type="line"/>
      <point x="244.2" y="1308.2" type="line"/>
      <point x="427.0" y="1383.8000000000002" type="line"/>
      <point x="653.4" y="1057.8" type="line"/>
    </contour>
  </outline>
</glyph>
<glyph name="a" format="2">
  <advance width="1250"/>
  <unicode hex="0061"/>
  <anchor x="599.2" y="914.0" name="top"/>
  <outline>
    <contour>
      <point x="35.99999999999999" y="275.6" type="qcurve" smooth="yes"/>
      <point x="35.99999999999999" y="409.8"/>
      <point x="236.39999999999998" y="554.6"/>
      <point x="449.19999999999993" y="552.4000000000001" type="qcurve" smooth="yes"/>
      <point x="885.5999999999999" y="547.4000000000001" type="line"/>
      <point x="885.5999999999999" y="648.2" type="line" smooth="yes"/>
      <point x="885.5999999999999" y="724.6"/>
      <point x="762.1999999999999" y="807.6"/>
      <point x="597.8" y="807.6" type="qcurve" smooth="yes"/>
      <point x="448.20000000000005" y="807.6"/>
      <point x="314.6" y="724.0"/>
      <point x="314.6" y="653.8" type="qcurve" smooth="yes"/>
      <point x="314.6" y="622.6" type="line"/>
      <point x="126.80000000000001" y="623.1999999999999" type="line"/>
      <point x="126.80000000000001" y="663.8" type="line" smooth="yes"/>
      <point x="126.80000000000001" y="779.2"/>
      <point x="378.0" y="945.5999999999999"/>
      <point x="611.8000000000001" y="945.5999999999999" type="qcurve" smooth="yes"/>
      <point x="861.6" y="945.5999999999999"/>
      <point x="1089.1999999999998" y="796.6"/>
      <point x="1089.1999999999998" y="617.8000000000001" type="qcurve" smooth="yes"/>
      <point x="1089.1999999999998" y="228.4" type="line" smooth="yes"/>
      <point x="1089.1999999999998" y="166.4"/>
      <point x="1107.0" y="54.2"/>
      <point x="1126.6" y="15.2" type="qcurve"/>
      <point x="1126.6" y="0.0" type="line"/>
      <point x="924.5999999999999" y="0.0" type="line"/>
      <point x="909.2" y="25.6"/>
      <point x="890.5999999999999" y="100.0"/>
      <point x="886.0" y="160.2" type="qcurve"/>
      <point x="840.2" y="92.0"/>
      <point x="613.2" y="-12.999999999999998"/>
      <point x="430.6" y="-12.999999999999998" type="qcurve" smooth="yes"/>
      <point x="236.2" y="-12.999999999999998"/>
      <point x="35.99999999999999" y="142.2"/>
    </contour>
    <contour>
      <point x="236.60000000000002" y="284.6" type="qcurve" smooth="yes"/>
      <point x="236.60000000000002" y="206.2"/>
      <point x="353.6" y="113.40000000000002"/>
      <point x="487.6" y="113.40000000000002" type="qcurve" smooth="yes"/>
      <point x="637.0" y="113.40000000000002"/>
      <point x="885.5999999999999" y="247.99999999999997"/>
      <point x="885.5999999999999" y="361.40000000000003" type="qcurve"/>
      <point x="885.5999999999999" y="437.6" type="line"/>
      <point x="509.79999999999995" y="440.6" type="line" smooth="yes"/>
      <point x="361.40000000000003" y="441.6"/>
      <point x="236.60000000000002" y="365.4"/>
    </contour>
  </outline>
</glyph>
<glyph name="b" format="2">
  <advance width="1403"/>
  <unicode hex="0062"/>
  <outline>
    <contour>
      <point x="168.0" y="0.0" type="line"/>
      <point x="168.0" y="1458.0" type="line"/>
      <point x="366.0" y="1458.0" type="line"/>
      <point x="366.0" y="782.0" type="line"/>
      <point x="409.0" y="840.1999999999999"/>
      <point x="624.0" y="946.0000000000001"/>
      <point x="788.0" y="946.0000000000001" type="qcurve" smooth="yes"/>
      <point x="1037.0" y="946.0000000000001"/>
      <point x="1326.0" y="689.0"/>
      <point x="1326.0" y="468.00000000000006" type="qcurve" smooth="yes"/>
      <point x="1326.0" y="456.0" type="line" smooth="yes"/>
      <point x="1326.0" y="222.0"/>
      <point x="1028.0" y="-30.0"/>
      <point x="789.0" y="-30.0" type="qcurve" smooth="yes"/>
      <point x="632.0" y="-30.0"/>
      <point x="412.6" y="68.8"/>
      <point x="371.0" y="112.0" type="qcurve"/>
      <point x="370.0" y="112.0" type="line"/>
      <point x="370.0" y="0.0" type="line"/>
    </contour>
    <contour>
      <point x="370.0" y="277.59999999999997" type="line"/>
      <point x="402.0" y="229.6"/>
      <point x="594.4" y="123.19999999999999"/>
      <point x="745.4000000000001" y="123.19999999999999" type="qcurve" smooth="yes"/>
      <point x="944.1999999999999" y="123.19999999999999"/>
      <point x="1125.8000000000002" y="295.40000000000003"/>
      <point x="1125.8000000000002" y="459.6" type="qcurve" smooth="yes"/>
      <point x="1125.8000000000002" y="464.20000000000005" type="line" smooth="yes"/>
      <point x="1125.8000000000002" y="613.8000000000001"/>
      <point x="944.1999999999999" y="790.8000000000001"/>
      <point x="745.1999999999999" y="790.8000000000001" type="qcurve" smooth="yes"/>
      <point x="608.4" y="790.8000000000001"/>
      <point x="409.2" y="699.0"/>
      <point x="370.0" y="642.2" type="qcurve"/>
    </contour>
  </outline>
</glyph>
<glyph name="f" format="2">
  <advance width="683"/>
  <unicode hex="0066"/>
  <outline>
    <contour>
      <point x="237.0" y="0.0" type="line"/>
      <point x="237.0" y="1104.6" type="line" smooth="yes"/>
      <point x="237.0" y="1288.2"/>
      <point x="450.79999999999995" y="1478.0"/>
      <point x="636.4" y="1478.0" type="qcurve" smooth="yes"/>
      <point x="674.4000000000001" y="1478.0"/>
      <point x="747.4" y="1468.6000000000001"/>
      <point x="781.8" y="1461.2" type="qcurve"/>
      <point x="783.8000000000001" y="1306.6" type="line"/>
      <point x="760.8000000000001" y="1310.2"/>
      <point x="698.9999999999999" y="1319.1999999999998"/>
      <point x="664.0" y="1319.1999999999998" type="qcurve" smooth="yes"/>
      <point x="558.7999999999998" y="1319.1999999999998"/>
      <point x="435.0" y="1209.0"/>
      <point x="435.0" y="1083.6000000000001" type="qcurve" smooth="yes"/>
      <point x="435.0" y="874.1999999999999" type="line"/>
      <point x="437.0" y="863.6" type="line"/>
      <point x="437.0" y="0.0" type="line"/>
    </contour>
    <contour>
      <point x="-1.6000000000000005" y="760.0" type="line"/>
      <point x="-1.6000000000000005" y="914.0" type="line"/>
      <point x="288.0" y="914.0" type="line"/>
      <point x="306.0" y="914.0" type="line"/>
      <point x="721.8" y="914.0" type="line"/>
      <point x="721.8" y="760.0" type="line"/>
    </contour>
  </outline>
</glyph>
<glyph name="i" format="2">
  <advance width="550"/>
  <unicode hex="0069"/>
  <outline>
    <contour>
      <point x="172.8" y="0.0" type="line"/>
      <point x="172.8" y="914.0" type="line"/>
      <point x="377.0" y="914.0" type="line"/>
      <point x="377.0" y="0.0" type="line"/>
    </contour>
    <contour>
      <point x="147.39999999999998" y="1253.0" type="qcurve" smooth="yes"/>
      <point x="147.39999999999998" y="1304.4"/>
      <point x="214.0" y="1373.8000000000002"/>
      <point x="275.6" y="1373.8000000000002" type="qcurve" smooth="yes"/>
      <point x="337.40000000000003" y="1373.8000000000002"/>
      <point x="402.40000000000003" y="1305.6"/>
      <point x="402.40000000000003" y="1252.8" type="qcurve" smooth="yes"/>
      <point x="402.40000000000003" y="1202.6000000000001"/>
      <point x="335.59999999999997" y="1130.2"/>
      <point x="274.0" y="1130.2" type="qcurve" smooth="yes"/>
      <point x="212.4" y="1130.2"/>
      <point x="147.39999999999998" y="1202.6000000000001"/>
    </contour>
  </outline>
</glyph>
<glyph name="k" format="2">
  <advance width="1190"/>
  <unicode hex="006B"/>
  <outline>
    <contour>
      <point x="168.0" y="0.0" type="line"/>
      <point x="168.0" y="1458.0" type="line"/>
      <point x="368.6" y="1458.0" type="line"/>
      <point x="368.6" y="477.20000000000005" type="line"/>
      <point x="902.0" y="914.0000000000001" type="line"/>
      <point x="1155.6000000000001" y="914.0000000000001" type="line"/>
      <point x="368.6" y="280.0" type="line"/>
      <point x="368.6" y="0.0" type="line"/>
    </contour>
    <contour>
      <point x="1028.6" y="0.0" type="line"/>
      <point x="506.0" y="478.80000000000007" type="line"/>
      <point x="639.8000000000001" y="591.6" type="line"/>
      <point x="1281.6000000000001" y="0.0" type="line"/>
    </contour>
  </outline>
</glyph>
<glyph name="m" format="2">
  <advance width="2070"/>
  <unicode hex="006D"/>
  <outline>
    <contour>
      <point x="168.0" y="-0.2" type="line"/>
      <point x="168.0" y="913.8000000000001" type="line"/>
      <point x="365.0" y="913.8000000000001" type="line"/>
      <point x="365.0" y="746.4" type="line"/>
      <point x="366.59999999999997" y="746.4" type="line"/>
      <point x="408.8" y="818.4"/>
      <point x="629.4" y="948.2"/>
      <point x="764.6" y="948.2" type="qcurve" smooth="yes"/>
      <point x="912.0" y="948.2"/>
      <point x="1086.4" y="821.4"/>
      <point x="1112.2" y="735.6" type="qcurve"/>
      <point x="1113.6" y="735.6" type="line"/>
      <point x="1163.4" y="815.4000000000001"/>
      <point x="1366.1999999999998" y="948.5999999999999"/>
      <point x="1521.6000000000001" y="948.5999999999999" type="qcurve" smooth="yes"/>
      <point x="1697.0" y="948.5999999999999"/>
      <point x="1921.6000000000001" y="738.4"/>
      <point x="1921.6000000000001" y="557.0" type="qcurve" smooth="yes"/>
      <point x="1921.6000000000001" y="-0.2" type="line"/>
      <point x="1718.8" y="-0.2" type="line"/>
      <point x="1718.8" y="522.0" type="line" smooth="yes"/>
      <point x="1718.8" y="645.4000000000001"/>
      <point x="1590.2" y="784.0"/>
      <point x="1454.0" y="784.0" type="qcurve" smooth="yes"/>
      <point x="1324.8" y="784.0"/>
      <point x="1179.8" y="665.8"/>
      <point x="1146.0" y="596.0" type="qcurve"/>
      <point x="1146.0" y="-0.2" type="line"/>
      <point x="943.2" y="-0.2" type="line"/>
      <point x="943.2" y="518.0" type="line" smooth="yes"/>
      <point x="943.2" y="650.2"/>
      <point x="825.4" y="784.0"/>
      <point x="696.0" y="784.0" type="qcurve" smooth="yes"/>
      <point x="586.4" y="784.0"/>
      <point x="399.4" y="654.0"/>
      <point x="370.6" y="585.8" type="qcurve"/>
      <point x="370.6" y="-0.2" type="line"/>
    </contour>
  </outline>
</glyph>
<glyph name="p" format="2">
  <advance width="1402"/>
  <unicode hex="0070"/>
  <outline>
    <contour>
      <point x="168.0" y="-410.4" type="line"/>
      <point x="168.0" y="914.0" type="line"/>
      <point x="364.40000000000003" y="914.0" type="line"/>
      <point x="364.40000000000003" y="788.1999999999999" type="line"/>
      <point x="365.0" y="788.4" type="line"/>
      <point x="409.2" y="843.8"/>
      <point x="621.8" y="946.2"/>
      <point x="787.5999999999999" y="946.2" type="qcurve" smooth="yes"/>
      <point x="1040.2" y="946.2"/>
      <point x="1325.6" y="694.0"/>
      <point x="1325.6" y="468.0" type="qcurve" smooth="yes"/>
      <point x="1325.6" y="456.0" type="line" smooth="yes"/>
      <point x="1325.6" y="222.99999999999997"/>
      <point x="1029.8" y="-30.0"/>
      <point x="789.6" y="-30.0" type="qcurve" smooth="yes"/>
      <point x="631.8" y="-30.0"/>
      <point x="412.0" y="69.8"/>
      <point x="371.0" y="110.40000000000002" type="qcurve"/>
      <point x="369.0" y="-410.4" type="line"/>
    </contour>
    <contour>
      <point x="370.0" y="277.40000000000003" type="line"/>
      <point x="400.8" y="229.8"/>
      <point x="594.4" y="123.0"/>
      <point x="746.8000000000001" y="123.0" type="qcurve" smooth="yes"/>
      <point x="942.8000000000001" y="123.0"/>
      <point x="1125.6" y="294.6"/>
      <point x="1125.6" y="458.8" type="qcurve" smooth="yes"/>
      <point x="1125.6" y="467.99999999999994" type="line" smooth="yes"/>
      <point x="1125.6" y="617.0"/>
      <point x="942.8" y="791.0"/>
      <point x="745.6" y="791.0" type="qcurve" smooth="yes"/>
      <point x="608.0" y="791.0"/>
      <point x="408.6" y="700.0"/>
      <point x="370.0" y="642.4" type="qcurve"/>
    </contour>
  </outline>
</glyph>
<glyph name="r" format="2">
  <advance width="988"/>
  <unicode hex="0072"/>
  <outline>
    <contour>
      <point x="168.0" y="0.0" type="line"/>
      <point x="168.0" y="914.0" type="line"/>
      <point x="368.0" y="914.0" type="line"/>
      <point x="368.0" y="693.0" type="line"/>
      <point x="370.0" y="693.0" type="line"/>
      <point x="420.0" y="790.0"/>
      <point x="651.0" y="945.4000000000001"/>
      <point x="801.0" y="945.4000000000001" type="qcurve" smooth="yes"/>
      <point x="875.6" y="945.4000000000001"/>
      <point x="959.0" y="924.8000000000001"/>
      <point x="988.0" y="911.8000000000001" type="qcurve"/>
      <point x="988.0" y="747.8000000000001" type="line"/>
      <point x="957.4" y="762.1999999999999"/>
      <point x="871.0" y="781.8000000000001"/>
      <point x="796.6" y="781.8000000000001" type="qcurve" smooth="yes"/>
      <point x="660.0" y="781.8000000000001"/>
      <point x="431.0" y="634.4"/>
      <point x="373.0" y="525.4" type="qcurve"/>
      <point x="373.0" y="0.0" type="line"/>
    </contour>
  </outline>
</glyph>
<glyph name="s" format="2">
  <advance width="1302"/>
  <unicode hex="0073"/>
  <outline>
    <contour>
      <point x="90.0" y="317.20000000000005" type="line"/>
      <point x="273.79999999999995" y="315.6" type="line"/>
      <point x="273.79999999999995" y="289.2" type="line" smooth="yes"/>
      <point x="273.79999999999995" y="189.0"/>
      <point x="477.2" y="102.4"/>
      <point x="655.5999999999999" y="102.4" type="qcurve" smooth="yes"/>
      <point x="836.8" y="102.4"/>
      <point x="1029.4" y="186.39999999999998"/>
      <point x="1029.4" y="263.2" type="qcurve" smooth="yes"/>
      <point x="1029.4" y="334.0"/>
      <point x="905.0" y="393.0"/>
      <point x="624.0" y="419.8" type="qcurve" smooth="yes"/>
      <point x="319.4" y="449.8"/>
      <point x="109.80000000000001" y="554.8"/>
      <point x="109.80000000000001" y="678.2" type="qcurve" smooth="yes"/>
      <point x="109.80000000000001" y="813.8"/>
      <point x="408.2" y="945.4"/>
      <point x="647.6" y="945.4" type="qcurve" smooth="yes"/>
      <point x="887.8" y="945.4"/>
      <point x="1172.0" y="803.6"/>
      <point x="1172.0" y="672.0" type="qcurve" smooth="yes"/>
      <point x="1172.0" y="624.1999999999999" type="line"/>
      <point x="989.8" y="624.1999999999999" type="line"/>
      <point x="989.8" y="654.8" type="line" smooth="yes"/>
      <point x="989.8" y="736.5999999999999"/>
      <point x="802.1999999999999" y="808.0"/>
      <point x="633.2" y="808.0" type="qcurve" smooth="yes"/>
      <point x="465.6" y="808.0"/>
      <point x="295.6" y="745.8000000000001"/>
      <point x="295.6" y="686.0" type="qcurve" smooth="yes"/>
      <point x="295.59999999999997" y="627.3999999999999"/>
      <point x="419.2" y="576.6000000000001"/>
      <point x="699.1999999999999" y="549.4000000000001" type="qcurve" smooth="yes"/>
      <point x="1025.8" y="517.9999999999999"/>
      <point x="1221.6000000000001" y="402.99999999999994"/>
      <point x="1221.6000000000001" y="288.0" type="qcurve" smooth="yes"/>
      <point x="1221.6000000000001" y="145.2"/>
      <point x="939.1999999999999" y="-31.4"/>
      <point x="668.6" y="-31.4" type="qcurve" smooth="yes"/>
      <point x="375.40000000000003" y="-31.4"/>
      <point x="91.0" y="132.6"/>
      <point x="90.2" y="268.2" type="qcurve" smooth="yes"/>
    </contour>
  </outline>
</glyph>
<glyph name="t" format="2">
  <advance width="854"/>
  <unicode hex="0074"/>
  <outline>
    <contour>
      <point x="2.8000000000000003" y="756.0" type="line"/>
      <point x="2.8000000000000003" y="914.0" type="line"/>
      <point x="832.8" y="914.0" type="line"/>
      <point x="832.8" y="756.0" type="line"/>
    </contour>
    <contour>
      <point x="258.0" y="296.4" type="qcurve" smooth="yes"/>
      <point x="258.0" y="872.0" type="line"/>
      <point x="262.0" y="883.0" type="line"/>
      <point x="262.0" y="1252.0" type="line"/>
      <point x="457.8" y="1252.0" type="line"/>
      <point x="457.8" y="352.0" type="line" smooth="yes"/>
      <point x="457.8" y="240.2"/>
      <point x="556.6" y="138.0"/>
      <point x="651.2" y="138.0" type="qcurve" smooth="yes"/>
      <point x="719.8000000000001" y="138.0"/>
      <point x="787.0" y="156.4"/>
      <point x="813.8" y="164.8" type="qcurve"/>
      <point x="836.8" y="17.4" type="line"/>
      <point x="805.4" y="4.8"/>
      <point x="709.4" y="-20.0"/>
      <point x="595.1999999999999" y="-20.0" type="qcurve" smooth="yes"/>
      <point x="449.2" y="-20.0"/>
      <point x="258.0" y="137.39999999999998"/>
    </contour>
  </outline>
</glyph>
<glyph name="u" format="2">
  <advance width="1356"/>
  <unicode hex="0075"/>
  <anchor x="671.6" y="914.0" name="top"/>
  <outline>
    <contour>
      <point x="148.79999999999998" y="344.8" type="qcurve" smooth="yes"/>
      <point x="148.79999999999998" y="914.0" type="line"/>
      <point x="351.40000000000003" y="914.0" type="line"/>
      <point x="351.40000000000003" y="379.2" type="line" smooth="yes"/>
      <point x="351.4" y="264.40000000000003"/>
      <point x="471.6" y="125.80000000000001"/>
      <point x="592.4" y="125.80000000000001" type="qcurve" smooth="yes"/>
      <point x="734.4000000000001" y="125.80000000000001"/>
      <point x="940.0" y="249.8"/>
      <point x="985.4" y="330.2" type="qcurve"/>
      <point x="985.4" y="914.0" type="line"/>
      <point x="1187.8" y="914.0" type="line"/>
      <point x="1187.8" y="0.0" type="line"/>
      <point x="989.4" y="0.0" type="line"/>
      <point x="990.0" y="170.4" type="line"/>
      <point x="988.8000000000001" y="170.4" type="line"/>
      <point x="945.5999999999999" y="106.39999999999999"/>
      <point x="711.1999999999999" y="-34.8"/>
      <point x="547.2" y="-34.8" type="qcurve" smooth="yes"/>
      <point x="356.2" y="-34.8"/>
      <point x="148.79999999999998" y="164.0"/>
    </contour>
  </outline>
</glyph>
<glyph name="v" format="2">
  <advance width="1185"/>
  <unicode hex="0076"/>
  <outline>
    <contour>
      <point x="-22.0" y="914.0" type="line"/>
      <point x="185.0" y="914.0" type="line"/>
      <point x="559.1999999999999" y="235.00000000000003" type="line" smooth="yes"/>
      <point x="576.4" y="203.2"/>
      <point x="586.0" y="187.39999999999998"/>
      <point x="598.6" y="166.2" type="qcurve"/>
      <point x="603.0" y="166.2" type="line"/>
      <point x="614.8" y="186.6"/>
      <point x="623.6" y="201.6"/>
      <point x="640.8000000000001" y="233.40000000000003" type="qcurve" smooth="yes"/>
      <point x="1017.8" y="914.0" type="line"/>
      <point x="1206.9999999999998" y="914.0" type="line"/>
      <point x="696.0" y="0.0" type="line"/>
      <point x="491.0" y="0.0" type="line"/>
    </contour>
  </outline>
</glyph>
<glyph name="w" format="2">
  <advance width="1936"/>
  <unicode hex="0077"/>
  <outline>
    <contour>
      <point x="5.999999999999999" y="914.0" type="line"/>
      <point x="206.00000000000003" y="914.0" type="line"/>
      <point x="509.40000000000003" y="185.40000000000003" type="line" smooth="yes"/>
      <point x="515.8000000000001" y="170.2"/>
      <point x="521.8" y="155.79999999999998"/>
      <point x="527.2" y="141.79999999999998" type="qcurve"/>
      <point x="529.5999999999999" y="141.79999999999998" type="line"/>
      <point x="535.8000000000001" y="155.8"/>
      <point x="542.6" y="170.2"/>
      <point x="549.8000000000001" y="185.40000000000003" type="qcurve" smooth="yes"/>
      <point x="880.0" y="914.0" type="line"/>
      <point x="1078.6" y="914.0" type="line"/>
      <point x="1406.3999999999999" y="183.79999999999995" type="line" smooth="yes"/>
      <point x="1413.6" y="168.60000000000002"/>
      <point x="1420.3999999999999" y="153.4"/>
      <point x="1425.0" y="141.8" type="qcurve"/>
      <point x="1427.4" y="141.8" type="line"/>
      <point x="1432.0" y="153.4"/>
      <point x="1438.0" y="168.59999999999997"/>
      <point x="1444.3999999999999" y="183.79999999999995" type="qcurve" smooth="yes"/>
      <point x="1746.3999999999999" y="914.0" type="line"/>
      <point x="1930.4" y="914.0" type="line"/>
      <point x="1543.3999999999999" y="0.0" type="line"/>
      <point x="1314.6000000000001" y="0.0" type="line"/>
      <point x="985.4" y="724.2" type="line" smooth="yes"/>
      <point x="980.0" y="735.5999999999999"/>
      <point x="973.2" y="749.8000000000001"/>
      <point x="970.4" y="757.6000000000001" type="qcurve"/>
      <point x="967.8" y="757.6000000000001" type="line"/>
      <point x="965.0" y="749.8"/>
      <point x="958.8" y="735.6"/>
      <point x="953.6" y="724.2" type="qcurve" smooth="yes"/>
      <point x="633.0000000000001" y="0.0" type="line"/>
      <point x="394.0" y="0.0" type="line"/>
    </contour>
  </outline>
</glyph>
<glyph name="x" format="2">
  <advance width="1182"/>
  <unicode hex="0078"/>
  <outline>
    <contour>
      <point x="-13.200000000000001" y="0.0" type="line"/>
      <point x="503.0" y="505.3999999999999" type="line"/>
      <point x="558.2" y="518.1999999999999" type="line"/>
      <point x="949.8" y="914.0" type="line"/>
      <point x="1177.8000000000002" y="914.0" type="line"/>
      <point x="690.0000000000001" y="430.40000000000003" type="line"/>
      <point x="629.0000000000001" y="414.0" type="line"/>
      <point x="214.8" y="0.0" type="line"/>
    </contour>
    <contour>
      <point x="4.800000000000001" y="914.0" type="line"/>
      <point x="264.8" y="914.0" type="line"/>
      <point x="659.8" y="515.6" type="line"/>
      <point x="681.8000000000001" y="504.40000000000003" type="line"/>
      <point x="1194.7999999999997" y="0.0" type="line"/>
      <point x="934.8000000000001" y="0.0" type="line"/>
      <point x="518.4" y="417.8" type="line"/>
      <point x="496.0" y="430.6" type="line"/>
    </contour>
  </outline>
</glyph>
<glyph name="y" format="2">
  <advance width="1185"/>
  <unicode hex="0079"/>
  <anchor x="602.4" y="914.0" name="top"/>
  <outline>
    <contour>
      <point x="-55.60000000000001" y="-400.6" type="qcurve"/>
      <point x="-43.39999999999999" y="-248.0" type="line"/>
      <point x="17.799999999999997" y="-270.0"/>
      <point x="107.79999999999998" y="-290.0"/>
      <point x="150.0" y="-290.0" type="qcurve" smooth="yes"/>
      <point x="244.0" y="-290.0"/>
      <point x="389.2" y="-178.0"/>
      <point x="490.0" y="1.9999999999999991" type="qcurve" smooth="yes"/>
      <point x="491.2" y="4.000000000000001" type="line"/>
      <point x="-22.0" y="914.0" type="line"/>
      <point x="186.2" y="914.0" type="line"/>
      <point x="554.6" y="247.6" type="line" smooth="yes"/>
      <point x="572.3999999999999" y="214.99999999999997"/>
      <point x="585.9999999999999" y="192.2"/>
      <point x="600.4" y="166.4" type="qcurve"/>
      <point x="602.1999999999999" y="166.4" type="line"/>
      <point x="616.0" y="191.39999999999998"/>
      <point x="629.2" y="214.6"/>
      <point x="647.0" y="246.2" type="qcurve" smooth="yes"/>
      <point x="1019.2" y="916.0" type="line"/>
      <point x="1218.6" y="914.0" type="line"/>
      <point x="642.0" y="-92.80000000000001" type="line" smooth="yes"/>
      <point x="541.8" y="-265.99999999999994"/>
      <point x="323.0" y="-436.0"/>
      <point x="184.39999999999998" y="-436.0" type="qcurve" smooth="yes"/>
      <point x="102.4" y="-436.0"/>
      <point x="4.0" y="-418.4"/>
    </contour>
  </outline>
</glyph>
<glyph name="z" format="2">
  <advance width="1113"/>
  <unicode hex="007A"/>
  <outline>
    <contour>
      <point x="41.00000000000001" y="0.0" type="line"/>
      <point x="41.00000000000001" y="125.0" type="line"/>
      <point x="771.0" y="772.0" type="line"/>
      <point x="52.0" y="772.0" type="line"/>
      <point x="52.0" y="914.0" type="line"/>
      <point x="1050.0" y="914.0" type="line"/>
      <point x="1050.0" y="785.0" type="line"/>
      <point x="321.0" y="138.0" type="line"/>
      <point x="1072.0" y="138.0" type="line"/>
      <point x="1072.0" y="0.0" type="line"/>
    </contour>
  </outline>
</glyph>
<glyph name="braceleft" format="2">
  <advance width="805"/>
  <unicode hex="007B"/>
  <outline>
    <contour>
      <point x="774.6" y="-312.0" type="line"/>
      <point x="427.59999999999997" y="-326.0"/>
      <point x="206.4" y="-78.2"/>
      <point x="253.4" y="114.19999999999999" type="qcurve" smooth="yes"/>
      <point x="300.40000000000003" y="320.0" type="line" smooth="yes"/>
      <point x="325.4" y="430.20000000000005"/>
      <point x="207.6" y="499.2"/>
      <point x="104.0" y="499.2" type="qcurve"/>
      <point x="104.0" y="648.8000000000001" type="line"/>
      <point x="207.6" y="648.8000000000001"/>
      <point x="325.4" y="717.8000000000001"/>
      <point x="300.40000000000003" y="828.0" type="qcurve" smooth="yes"/>
      <point x="253.4" y="1033.8" type="line" smooth="yes"/>
      <point x="206.8" y="1224.4"/>
      <point x="427.59999999999997" y="1474.0"/>
      <point x="774.6" y="1460.0" type="qcurve"/>
      <point x="774.6" y="1317.6" type="line"/>
      <point x="537.4" y="1317.6"/>
      <point x="409.6" y="1159.0"/>
      <point x="442.2" y="1015.8000000000001" type="qcurve" smooth="yes"/>
      <point x="489.20000000000005" y="814.0" type="line" smooth="yes"/>
      <point x="509.99999999999994" y="730.0"/>
      <point x="435.8" y="602.6"/>
      <point x="336.8" y="574.0" type="qcurve"/>
      <point x="435.8" y="545.4"/>
      <point x="509.2" y="418.0"/>
      <point x="489.20000000000005" y="334.0" type="qcurve" smooth="yes"/>
      <point x="442.2" y="132.20000000000002" type="line" smooth="yes"/>
      <point x="409.6" y="-10.999999999999996"/>
      <point x="537.4" y="-169.6"/>
      <point x="774.6" y="-169.6" type="qcurve"/>
    </contour>
  </outline>
</glyph>
<glyph name="onesuperior" format="2">
  <advance width="751"/>
  <unicode hex="00B9"/>
  <outline>
    <contour>
      <point x="123.00000000000001" y="1211.0" type="line"/>
      <point x="123.00000000000001" y="1369.9999999999998" type="line"/>
      <point x="457.00000000000006" y="1486.0" type="line"/>
      <point x="501.0" y="1486.0" type="line"/>
      <point x="501.0" y="697.0" type="line"/>
      <point x="339.0" y="697.0" type="line"/>
      <point x="339.0" y="1288.0" type="line"/>
    </contour>
  </outline>
</glyph>
<glyph name="ordmasculine" format="2">
  <advance width="932"/>
  <unicode hex="00BA"/>
  <guideline x="0" y="1975.0" angle="0" identifier="Jnt0R9CyOf"/>
  <outline>
    <contour>
      <point x="123.0" y="1043.0" type="qcurve"/>
      <point x="123.0" y="1124.0" type="line"/>
      <point x="122.99999999999999" y="1278.0"/>
      <point x="308.0" y="1477.0"/>
      <point x="465.0" y="1477.0" type="qcurve" smooth="yes"/>
      <point x="623.0" y="1477.0"/>
      <point x="807.0" y="1278.0"/>
      <point x="807.0" y="1124.0" type="qcurve"/>
      <point x="807.0" y="1043.0" type="line"/>
      <point x="807.0" y="889.0"/>
      <point x="624.0" y="691.0"/>
      <point x="467.0" y="691.0" type="qcurve" smooth="yes"/>
      <point x="309.0" y="691.0"/>
      <point x="123.0" y="889.0"/>
    </contour>
    <contour>
      <point x="286.0" y="1124.0" type="qcurve"/>
      <point x="286.0" y="1043.0" type="line"/>
      <point x="286.0" y="952.0"/>
      <point x="375.0" y="830.0"/>
      <point x="467.0" y="830.0" type="qcurve" smooth="yes"/>
      <point x="556.0" y="830.0"/>
      <point x="645.0" y="952.0"/>
      <point x="645.0" y="1043.0" type="qcurve"/>
      <point x="645.0" y="1124.0" type="line"/>
      <point x="645.0" y="1213.0"/>
      <point x="555.0" y="1336.0"/>
      <point x="465.0" y="1336.0" type="qcurve" smooth="yes"/>
      <point x="375.0" y="1336.0"/>
      <point x="286.0" y="1213.0"/>
    </contour>
  </outline>
</glyph>
<glyph name="hungarumlaut" format="2">
  <advance width="1024"/>
  <unicode hex="02DD"/>
  <outline>
    <contour>
      <point x="535.0" y="1199.0000000000002" type="line"/>
      <point x="765.0" y="1502.0" type="line"/>
      <point x="972.0000000000002" y="1502.0" type="line"/>
      <point x="704.0" y="1199.0" type="line"/>
    </contour>
    <contour>
      <point x="254.99999999999994" y="1199.0000000000002" type="line"/>
      <point x="425.00000000000006" y="1502.0" type="line"/>
      <point x="623.0" y="1502.0" type="line"/>
      <point x="404.99999999999994" y="1199.0" type="line"/>
    </contour>
  </outline>
</glyph>
<glyph name="diagonalbarL" format="2">
  <advance width="741"/>
  <outline>
    <contour>
      <point x="80.0" y="446.0" type="line"/>
      <point x="-1.7763568394002505e-15" y="584.0" type="line"/>
      <point x="664.0" y="995.0" type="line"/>
      <point x="745.0" y="860.0" type="line"/>
    </contour>
  </outline>
</glyph>
<glyph name="dollar.rvrn" format="2">
  <advance width="1362"/>
  <outline>
    <contour>
      <point x="80.4" y="411.0" type="qcurve" smooth="yes"/>
      <point x="80.4" y="440.0" type="line"/>
      <point x="276.59999999999997" y="440.0" type="line"/>
      <point x="276.59999999999997" y="423.4" type="line" smooth="yes"/>
      <point x="276.4" y="282.0"/>
      <point x="508.4" y="144.4"/>
      <point x="690.2" y="144.4" type="qcurve" smooth="yes"/>
      <point x="888.0" y="144.4"/>
      <point x="1082.2" y="275.0"/>
      <point x="1082.2" y="381.8" type="qcurve" smooth="yes"/>
      <point x="1082.2" y="477.4"/>
      <point x="931.6" y="595.0"/>
      <point x="654.5999999999999" y="658.4" type="qcurve" smooth="yes"/>
      <point x="363.0" y="726.4000000000001"/>
      <point x="112.8" y="913.2"/>
      <point x="112.8" y="1077.6" type="qcurve" smooth="yes"/>
      <point x="112.8" y="1255.1999999999998"/>
      <point x="412.2" y="1459.6"/>
      <point x="674.8" y="1459.6" type="qcurve" smooth="yes"/>
      <point x="942.2" y="1459.6"/>
      <point x="1250.8000000000002" y="1237.0"/>
      <point x="1250.8000000000002" y="1053.0" type="qcurve" smooth="yes"/>
      <point x="1250.8000000000002" y="1027.4" type="line"/>
      <point x="1056.8000000000002" y="1027.4" type="line"/>
      <point x="1056.8000000000002" y="1041.6000000000001" type="line" smooth="yes"/>
      <point x="1056.8000000000002" y="1163.8"/>
      <point x="849.2" y="1308.3999999999999"/>
      <point x="677.6" y="1308.3999999999999" type="qcurve" smooth="yes"/>
      <point x="505.6" y="1308.3999999999999"/>
      <point x="312.20000000000005" y="1194.2"/>
      <point x="312.20000000000005" y="1088.8" type="qcurve" smooth="yes"/>
      <point x="312.20000000000005" y="996.8"/>
      <point x="480.0" y="885.0"/>
      <point x="760.8" y="823.4" type="qcurve" smooth="yes"/>
      <point x="1036.1999999999998" y="762.8"/>
      <point x="1281.4" y="571.6"/>
      <point x="1281.4" y="404.0" type="qcurve" smooth="yes"/>
      <point x="1281.4" y="216.39999999999998"/>
      <point x="968.8000000000001" y="-4.000000000000001"/>
      <point x="692.1999999999999" y="-4.000000000000001" type="qcurve" smooth="yes"/>
      <point x="413.0" y="-4.000000000000001"/>
      <point x="80.4" y="206.8"/>
    </contour>
    <contour>
      <point x="604.6" y="-150.20000000000002" type="line"/>
      <point x="604.6" y="79.99999999999999" type="line"/>
      <point x="774.5999999999999" y="79.99999999999999" type="line"/>
      <point x="774.5999999999999" y="59.800000000000004" type="line"/>
      <point x="773.8" y="49.800000000000004" type="line"/>
      <point x="773.8" y="-150.20000000000002" type="line"/>
    </contour>
    <contour>
      <point x="608.4" y="1384.0" type="line"/>
      <point x="608.4000000000001" y="1401.6" type="line"/>
      <point x="607.4000000000001" y="1414.0" type="line"/>
      <point x="607.4000000000001" y="1606.0" type="line"/>
      <point x="776.5999999999999" y="1606.0" type="line"/>
      <point x="776.6" y="1384.0" type="line"/>
    </contour>
  </outline>
</glyph>
<glyph name="zerosuperior" format="2">
  <advance width="833"/>
  <outline>
    <contour>
      <point x="54.8" y="1040.0" type="qcurve" smooth="yes"/>
      <point x="54.8" y="1128.4" type="line" smooth="yes"/>
      <point x="54.8" y="1294.6000000000001"/>
      <point x="250.8" y="1491.8"/>
      <point x="414.59999999999997" y="1491.8" type="qcurve" smooth="yes"/>
      <point x="581.0" y="1491.8"/>
      <point x="778.6" y="1294.0"/>
      <point x="778.6" y="1130.0" type="qcurve" smooth="yes"/>
      <point x="778.6" y="1043.6" type="line" smooth="yes"/>
      <point x="778.6" y="874.6"/>
      <point x="581.0000000000001" y="675.8"/>
      <point x="414.59999999999997" y="675.8" type="qcurve" smooth="yes"/>
      <point x="250.79999999999998" y="675.8"/>
      <point x="54.8" y="870.8"/>
    </contour>
    <contour>
      <point x="212.0" y="1028.4" type="line" smooth="yes"/>
      <point x="212.0" y="920.5999999999999"/>
      <point x="324.20000000000005" y="796.6"/>
      <point x="414.59999999999997" y="796.6" type="qcurve" smooth="yes"/>
      <point x="509.19999999999993" y="796.6"/>
      <point x="621.4" y="920.5999999999999"/>
      <point x="621.4" y="1028.4" type="qcurve" smooth="yes"/>
      <point x="621.4" y="1137.1999999999998" type="line" smooth="yes"/>
      <point x="621.4" y="1245.0"/>
      <point x="510.00000000000006" y="1371.0"/>
      <point x="414.59999999999997" y="1371.0" type="qcurve" smooth="yes"/>
      <point x="323.59999999999997" y="1371.0"/>
      <point x="212.0" y="1245.0"/>
      <point x="212.0" y="1137.1999999999998" type="qcurve" smooth="yes"/>
    </contour>
  </outline>
</glyph>
